<?xml version="1.0" encoding="UTF-8" standalone="no"?>
<!-- Created with Inkscape (http://www.inkscape.org/) -->

<svg
   version="1.1"
   width="160"
   height="160"
   id="svg2985"
   xml:space="preserve"
   xmlns:xlink="http://www.w3.org/1999/xlink"
   xmlns="http://www.w3.org/2000/svg"
   xmlns:svg="http://www.w3.org/2000/svg"
   xmlns:rdf="http://www.w3.org/1999/02/22-rdf-syntax-ns#"
   xmlns:cc="http://creativecommons.org/ns#"
   xmlns:dc="http://purl.org/dc/elements/1.1/"><title
     id="title2998">SQLite</title><metadata
     id="metadata2991"><rdf:RDF><cc:Work
         rdf:about=""><dc:format>image/svg+xml</dc:format><dc:type
           rdf:resource="http://purl.org/dc/dcmitype/StillImage" /><dc:title>SQLite</dc:title></cc:Work></rdf:RDF></metadata><defs
     id="defs2989"><linearGradient
       x1="0"
       y1="0"
       x2="1"
       y2="0"
       id="linearGradient3027"
       gradientUnits="userSpaceOnUse"
       gradientTransform="matrix(-4.02e-6,-91.8907,-91.8907,4.02e-6,85.8809,161.434)"
       spreadMethod="pad"><stop
         id="stop3029"
         style="stop-color:#97d9f6;stop-opacity:1"
         offset="0" /><stop
         id="stop3031"
         style="stop-color:#0f80cc;stop-opacity:1"
         offset="0.92024499" /><stop
         id="stop3033"
         style="stop-color:#0f80cc;stop-opacity:1"
         offset="1" /></linearGradient><linearGradient
       x1="-15.614694"
       y1="-9.1082983"
       x2="-6.7410073"
       y2="-9.1082983"
       id="linearGradient2995"
       xlink:href="#linearGradient3027"
       gradientUnits="userSpaceOnUse"
       gradientTransform="matrix(-5.025e-7,11.486337,-11.486337,-5.025e-7,-30.839638,202.18698)"
       spreadMethod="pad" /></defs><g
     id="layer1"
     style="display:inline"><path
       d="M 121.6315,17.03623 H 22.1255 C 15.4565,17.03623 10,22.49373 10,29.16248 v 109.7365 c 0,6.66837 5.4565,12.125 12.1255,12.125 H 87.66275 C 86.918884,118.41477 98.054499,55.130402 121.6315,17.03623 Z"
       id="solid-background"
       style="fill:#0f80cc;fill-opacity:1;fill-rule:nonzero;stroke:none" /><path
       d="m 118.0165,20.57373 h -95.891 c -4.735375,0 -8.588875,3.8525 -8.588875,8.58875 v 101.73013 c 21.71725,-8.335 54.31221,-15.5269 76.849585,-15.20027 4.52893,-23.680901 17.83941,-70.090424 27.63029,-95.11861 z"
       id="gradient-background"
       style="fill:url(#linearGradient2995);fill-opacity:1;fill-rule:nonzero;stroke:none" /><path
       d="m 144.8415,13.44498 c -6.815,-6.0775 -15.06625,-3.63625 -23.21,3.59125 -1.20875,1.07375 -2.415,2.265 -3.615,3.5375 -13.93125,14.77875 -26.8625,42.15375 -30.88,63.06 1.565,3.17375 2.7875,7.22375 3.5925,10.3175 0.20625,0.79375 0.3925,1.53875 0.54125,2.1725 0.35375,1.499875 0.54375,2.4725 0.54375,2.4725 0,0 -0.125,-0.472625 -0.6375,-1.95875 -0.0975,-0.285 -0.20625,-0.59625 -0.335,-0.9625 -0.055,-0.15125 -0.13125,-0.335 -0.215,-0.53125 -0.90875,-2.1125 -3.4225,-6.57125 -4.52875,-8.5125 -0.94625,2.79125 -1.7825,5.4025 -2.4825,7.765 3.19375,5.8435 5.14,15.85775 5.14,15.85775 0,0 -0.16875,-0.649 -0.97125,-2.91412 -0.7125,-2.00338 -4.26125,-8.22113 -5.101875,-9.674755 -1.438,5.308505 -2.009375,8.892505 -1.494125,9.765125 1.000375,1.69088 1.953125,4.60838 2.78975,7.83488 1.89,7.26862 3.20375,16.11725 3.20375,16.11725 0,0 0.0425,0.58637 0.11375,1.48875 -0.2625,6.104 -0.105,12.43262 0.3675,18.15287 0.62625,7.57225 1.805,14.07713 3.3075,17.5585 l 1.02,-0.55612 c -2.20625,-6.85888 -3.1025,-15.84763 -2.71,-26.21388 0.59375,-15.84512 4.24,-34.95362 10.9775,-54.87 11.3825,-30.065 27.175,-54.1875 41.62875,-65.7075 -13.17375,11.8975 -31.00375,50.40875 -36.34125,64.67 -5.97625,15.97 -10.21125,30.95638 -12.76375,45.31475 4.40375,-13.46087 18.6425,-19.247 18.6425,-19.247 0,0 6.98375,-8.61287 15.145,-20.91775 -4.88875,1.115 -12.91625,3.02375 -15.605,4.15375 -3.96625,1.66375 -5.035,2.23125 -5.035,2.23125 0,0 12.8475,-7.82375 23.87,-11.36625 15.15875,-23.875 31.67375,-57.7925 15.0425,-72.62875"
       id="feather"
       style="fill:#003b57;fill-opacity:1;fill-rule:nonzero;stroke:none" /></g><g
     id="layer2"
     style="display:inline"><path
       d="m 25.591085,27.218774 c -1.928224,0 -3.496093,0.570765 -4.698109,1.711817 -1.202017,1.142041 -1.811772,2.638978 -1.811772,4.473198 0,0.950573 0.151434,1.817276 0.449819,2.611448 0.298381,0.795785 0.762694,1.53298 1.386943,2.199112 0.624248,0.666739 1.873746,1.572423 3.735997,2.723902 2.285079,1.394991 3.780479,2.527132 4.49819,3.41113 0.718212,0.883247 1.074567,1.808876 1.074567,2.773885 0,1.292071 -0.425329,2.323463 -1.299477,3.09876 -0.875647,0.775632 -2.046676,1.162018 -3.498592,1.162018 -1.531384,0 -2.865348,-0.539817 -4.010887,-1.61185 -1.145538,-1.073567 -1.723806,-2.493533 -1.7368,-4.273282 H 18.96875 v 6.459906 h 0.712214 c 0.217412,-0.61171 0.518291,-0.924623 0.912132,-0.924623 0.189425,0 0.633246,0.130626 1.324467,0.374841 1.681824,0.598408 3.062769,0.887144 4.148331,0.887144 1.870748,0 3.467606,-0.655178 4.798071,-1.986692 1.328465,-1.330923 1.999195,-2.936322 1.999195,-4.810576 0,-1.45331 -0.442821,-2.746339 -1.311973,-3.873433 -0.86915,-1.128436 -2.55947,-2.441011 -5.085454,-3.948408 -2.173625,-1.305932 -3.584557,-2.36955 -4.235795,-3.19871 -0.652237,-0.827978 -0.987103,-1.74385 -0.987103,-2.748894 0,-1.087076 0.399339,-1.960215 1.187023,-2.611448 0.787682,-0.651744 1.819767,-0.974622 3.111249,-0.974622 1.453413,0 2.664927,0.431324 3.623541,1.29948 0.957614,0.869658 1.511391,2.074777 1.674327,3.62355 h 0.712212 v -5.597754 h -0.662232 c -0.08096,0.285383 -0.155938,0.467813 -0.22491,0.549782 -0.06697,0.08144 -0.195921,0.124878 -0.387345,0.124878 -0.230407,0 -0.641241,-0.09693 -1.224507,-0.287379 -1.249497,-0.420832 -2.401534,-0.637244 -3.461108,-0.637244 z m 23.278135,0 c -2.349555,0 -4.482697,0.553774 -6.40992,1.661834 -1.930224,1.106047 -3.458109,2.641933 -4.585655,4.598155 -1.127047,1.956048 -1.686822,4.033523 -1.686822,6.247486 0,2.974393 0.973608,5.624279 2.936319,7.946799 1.963709,2.321115 4.316762,3.767431 7.047164,4.323249 0.624249,0.325273 1.51739,1.164941 2.686419,2.524002 1.31747,1.533714 2.432022,2.639937 3.348653,3.29866 0.915632,0.65909 1.904234,1.142137 2.948813,1.461917 1.045579,0.318423 2.176125,0.474807 3.398633,0.474807 1.480404,0 2.805871,-0.257293 3.973402,-0.787177 l -0.262395,-0.649748 c -0.677728,0.244454 -1.400437,0.362353 -2.161631,0.362353 -1.033083,0 -2.077164,-0.340667 -3.123743,-1.024589 -1.045079,-0.685615 -2.352054,-1.993734 -3.910927,-3.923417 -0.732704,-0.924623 -1.238501,-1.507988 -1.524386,-1.736808 2.987298,-0.583365 5.44381,-2.031165 7.359539,-4.34824 1.91523,-2.316069 2.873845,-4.95936 2.873845,-7.921808 0,-3.517547 -1.251497,-6.473751 -3.735998,-8.883941 -2.4865,-2.410414 -5.54427,-3.623534 -9.17131,-3.623534 z m 14.531654,0 0.03746,0.762186 c 1.564372,0 2.440519,0.460834 2.63644,1.386943 0.07298,0.331373 0.10645,0.943227 0.112454,1.82427 l -0.01246,16.855716 c -0.01293,1.258903 -0.192423,2.062673 -0.537284,2.411532 -0.345361,0.346369 -0.929125,0.563276 -1.774286,0.649748 l -0.03746,0.762186 h 15.593727 l 0.399839,-3.823466 h -0.712213 c -0.203418,1.041581 -0.669731,1.787734 -1.411932,2.211616 -0.7442,0.42698 -2.060172,0.637244 -3.960906,0.637244 h -1.474408 c -1.710311,0 -2.699913,-0.618305 -2.961307,-1.86175 -0.05398,-0.246003 -0.07247,-0.509747 -0.07497,-0.799681 l 0.06247,-17.043145 c -3.99e-4,-1.256891 0.158445,-2.099145 0.487303,-2.511482 0.332367,-0.410835 0.931626,-0.640741 1.799278,-0.699731 l -0.03746,-0.762186 h -8.13424 z m -14.281755,0.924623 c 2.649934,0 4.813564,1.043688 6.484891,3.148742 1.670828,2.105805 2.498995,4.991937 2.498995,8.646514 0,3.463061 -0.840162,6.235941 -2.523985,8.321656 -1.683821,2.085061 -3.92492,3.123735 -6.7098,3.123735 -2.675424,0 -4.84505,-1.071059 -6.50988,-3.223701 -1.663331,-2.152626 -2.4865,-4.947415 -2.4865,-8.384111 0,-3.531584 0.833164,-6.358598 2.511489,-8.471605 1.677325,-2.110755 3.923422,-3.16123 6.73479,-3.16123 z m 35.86057,3.62355 c -0.380347,0 -0.670228,0.128391 -0.88714,0.387345 -0.221911,0.257884 -0.289881,0.57027 -0.212417,0.949614 0.07497,0.368007 0.282388,0.690533 0.612253,0.962119 0.327871,0.27133 0.681729,0.412336 1.062076,0.412336 0.367849,0 0.648236,-0.141006 0.84966,-0.412336 0.201417,-0.271586 0.262892,-0.594112 0.187421,-0.962119 -0.07747,-0.379344 -0.277886,-0.69173 -0.587265,-0.949614 -0.31287,-0.25889 -0.656733,-0.387345 -1.024588,-0.387345 z m 10.283363,2.586457 c -0.646235,2.486091 -2.047176,3.831466 -4.198312,4.048374 l 0.02496,0.712219 h 2.511491 l -0.04998,8.421606 c 0.0043,1.439816 0.04797,2.398437 0.149933,2.886339 0.247402,1.168071 1.010096,1.761784 2.286582,1.761784 1.846757,0 3.783976,-1.124939 5.810164,-3.373635 l -0.61226,-0.52479 c -1.462903,1.480856 -2.756384,2.224103 -3.88593,2.224103 -0.69422,0 -1.124547,-0.399242 -1.286984,-1.187026 -0.04446,-0.191309 -0.06245,-0.414876 -0.06245,-0.674724 l 0.02502,-9.533657 h 3.835957 l -0.03751,-1.137044 h -3.785975 v -3.623549 z m -8.621532,3.261244 -4.623138,1.062068 v 0.824673 l 1.599361,-0.199932 c 0.774684,0 1.230501,0.350824 1.374445,1.049581 0.04847,0.233866 0.07897,0.56227 0.08746,0.974606 l -0.04998,7.559454 c -0.01293,1.046084 -0.12895,1.654184 -0.362349,1.836774 -0.235406,0.182926 -0.856156,0.274875 -1.861756,0.274875 l -0.02502,0.712219 h 7.334556 l -0.01246,-0.712219 c -1.019088,0 -1.679821,-0.08032 -1.974206,-0.237395 -0.289387,-0.156018 -0.488804,-0.439867 -0.574765,-0.874656 -0.06648,-0.313329 -0.09546,-0.853194 -0.09997,-1.599347 l 0.02496,-10.670701 h -0.83716 z"
       id="SQLite"
       style="fill:#003b57;fill-opacity:1;fill-rule:nonzero;stroke:none;stroke-width:0.399839" /></g><g
     id="layer3"><path
       d="m 110.0113,36.921706 c -2.14564,0 -3.89094,1.041564 -5.24789,3.111247 -1.34997,2.073164 -1.76779,4.370086 -1.237,6.897218 0.31236,1.480249 0.93462,2.627497 1.88674,3.436105 0.95062,0.808289 2.15663,1.212018 3.59855,1.212018 1.34246,0 3.21171,-0.339901 3.99839,-1.02459 0.78869,-0.684273 1.51539,-1.792827 2.18662,-3.311163 l -0.53728,-0.56227 c -1.07058,1.969701 -3.2312,2.961314 -4.86055,2.961314 -2.2401,0 -3.61204,-1.229009 -4.12334,-3.673533 -0.0665,-0.312019 -0.11595,-0.647241 -0.14993,-0.999598 2.66493,-0.421933 4.68461,-1.169077 6.04756,-2.249094 1.36195,-1.080609 2.72941,-2.226052 2.47401,-3.436106 -0.15194,-0.719069 -0.52529,-1.284437 -1.09956,-1.711816 -0.58177,-0.427188 -2.09215,-0.649732 -2.93631,-0.649732 z m -1.17453,1.48694 c 0.44632,0 0.87764,0.172386 1.31197,0.512287 0.42833,0.338719 0.68922,0.715365 0.77469,1.124555 0.41833,2.009735 -1.36345,3.399169 -5.37284,4.173316 -0.11445,-1.465462 0.13944,-2.795763 0.78718,-3.998375 0.64275,-1.201478 1.47991,-1.811783 2.499,-1.811783 z"
       style="fill:#fcfcfc;fill-opacity:1;fill-rule:nonzero;stroke:none;stroke-width:0.399839"
       id="path1088" /></g></svg>
